<?xml version="1.0" encoding="iso-8859-1"?>
<!-- Generator: Adobe Illustrator 19.0.0, SVG Export Plug-In . SVG Version: 6.00 Build 0)  -->
<svg version="1.1" id="Layer_1" xmlns="http://www.w3.org/2000/svg" xmlns:xlink="http://www.w3.org/1999/xlink" x="0px" y="0px"
	 viewBox="0 0 512 512" style="enable-background:new 0 0 512 512;" xml:space="preserve">
<circle style="fill:#FFD15D;" cx="256" cy="256" r="256"/>
<path style="fill:#F9B54C;" d="M256.853,511.99c122.547-0.4,224.802-86.904,249.465-202.181L383.571,187.061l-91.367,68.941
	L128.433,383.571L256.853,511.99z"/>
<polygon style="fill:#324A5E;" points="324.941,128.431 128.433,128.431 128.433,383.569 383.571,383.569 383.571,187.059 "/>
<polygon style="fill:#2B3B4E;" points="383.571,187.059 324.941,128.431 255.428,128.431 255.428,383.569 383.571,383.569 "/>
<rect x="160.323" y="256" style="fill:#E6F3FF;" width="191.354" height="95.677"/>
<rect x="255.431" y="256" style="fill:#CFDBE6;" width="96.251" height="95.677"/>
<rect x="160.323" y="150.652" style="fill:#E6F3FF;" width="127.569" height="63.785"/>
<rect x="255.431" y="150.652" style="fill:#CFDBE6;" width="32.466" height="63.785"/>
<rect x="256" y="154.048" style="fill:#5E7382;" width="25.128" height="57.027"/>
<rect x="175.787" y="273.808" style="fill:#84DBFF;" width="160.427" height="6.896"/>
<rect x="255.431" y="273.808" style="fill:#31BAFD;" width="80.787" height="6.896"/>
<polyline style="fill:#84DBFF;" points="175.787,311.182 175.787,318.078 255.428,318.078 255.428,311.182 "/>
<rect x="255.431" y="311.182" style="fill:#31BAFD;" width="80.787" height="6.896"/>
<g>
	<rect x="175.787" y="329.869" style="fill:#84DBFF;" width="79.644" height="6.896"/>
</g>
<rect x="255.431" y="329.869" style="fill:#31BAFD;" width="80.787" height="6.896"/>
<rect x="175.787" y="292.495" style="fill:#84DBFF;" width="79.644" height="6.896"/>
<rect x="255.431" y="292.495" style="fill:#31BAFD;" width="80.787" height="6.896"/>
<g>
</g>
<g>
</g>
<g>
</g>
<g>
</g>
<g>
</g>
<g>
</g>
<g>
</g>
<g>
</g>
<g>
</g>
<g>
</g>
<g>
</g>
<g>
</g>
<g>
</g>
<g>
</g>
<g>
</g>
</svg>
